# xmcd
#
# Track frame offsets:
#	150
#	20319
#	38976
#	55787
#	71041
#	87997
#	107938
#	130614
#	145156
#	161802
#	186396
#	204223
#	218925
#	241330
#	263477
#	283130
#	299789
#
# Disc length: 4384 seconds
#
# Revision: 0
# Processed by: cddbd v1.5.2PL0 Copyright (c) Steve Scherf et al.
# Submitted via: dBpowerAMP V4.0
#
DISCID=08111e11
DTITLE=Travis Collins - Start the Car
DYEAR=2006
DGENRE=Country
TTITLE0=Start the Car
TTITLE1=Slow Train Comin'
TTITLE2=1000 Memories
TTITLE3=Stop
TTITLE4=Its Just my Heart
TTITLE5=I was Wrong
TTITLE6=Maggie May
TTITLE7=My In-laws are Outlaws
TTITLE8=Just Another Night
TTITLE9=Step Inside This House
TTITLE10=A Fool Like me (with Samantha McClymont)
TTITLE11=Barbed Wire and Roses
TTITLE12=She Took the Ring
TTITLE13=Give it Time
TTITLE14=Full Tank
TTITLE15=Redliner
TTITLE16=I am Australian (live)
EXTD=
EXTT0=
EXTT1=
EXTT2=
EXTT3=
EXTT4=
EXTT5=
EXTT6=
EXTT7=
EXTT8=
EXTT9=
EXTT10=
EXTT11=
EXTT12=
EXTT13=
EXTT14=
EXTT15=
EXTT16=
PLAYORDER=
